<?xml version="1.0" encoding="UTF-8" standalone="no"?>
<!-- Created with Inkscape (http://www.inkscape.org/) -->

<svg
   width="169mm"
   height="147mm"
   viewBox="0 0 169 147"
   version="1.1"
   id="svg1"
   xml:space="preserve"
   inkscape:version="1.3 (0e150ed6c4, 2023-07-21)"
   sodipodi:docname="baran.svg"
   xmlns:inkscape="http://www.inkscape.org/namespaces/inkscape"
   xmlns:sodipodi="http://sodipodi.sourceforge.net/DTD/sodipodi-0.dtd"
   xmlns="http://www.w3.org/2000/svg"
   xmlns:svg="http://www.w3.org/2000/svg"><sodipodi:namedview
     id="namedview1"
     pagecolor="#ffffff"
     bordercolor="#000000"
     borderopacity="0.25"
     inkscape:showpageshadow="2"
     inkscape:pageopacity="0.0"
     inkscape:pagecheckerboard="0"
     inkscape:deskcolor="#d1d1d1"
     inkscape:document-units="mm"
     inkscape:zoom="0.36569515"
     inkscape:cx="747.8907"
     inkscape:cy="597.49221"
     inkscape:window-width="1920"
     inkscape:window-height="1017"
     inkscape:window-x="-8"
     inkscape:window-y="-8"
     inkscape:window-maximized="1"
     inkscape:current-layer="layer1" /><defs
     id="defs1" /><g
     inkscape:label="Warstwa 1"
     inkscape:groupmode="layer"
     id="layer1"><path
       style="display:inline;fill:#aa0000;fill-opacity:1;stroke-width:0.264583"
       d="m 0.17178743,39.529984 c 0,0 11.61624957,-9.327941 26.44816257,-12.041095 14.831912,-2.713154 33.100486,1.808771 33.100486,1.808771 0,0 -2.170523,-9.04385 0.180877,-11.757003 2.3514,-2.713154 4.73174,-4.485834 4.73174,-4.485834 0,0 4.188703,-2.142315 5.563621,-2.621937 1.374918,-0.4796234 2.621936,-2.0783644 2.621936,-2.0783644 0,0 3.325384,-3.03761 7.098413,0.255798 3.773033,3.2934084 4.732277,5.0839994 4.732277,5.0839994 0,0 6.107195,-5.6915214 8.984927,-6.2031184 2.877735,-0.511597 4.172717,-0.783383 4.172717,-0.783383 0,0 0.463635,-0.815359 0.719434,-0.815359 0.255797,0 6.011262,-5.11597298 21.231282,-4.220678 15.22003,0.895296 21.48709,9.7203504 21.48709,9.7203504 0,0 13.55733,6.139167 17.01061,8.185558 3.45328,2.046388 11.25515,8.825053 11.25515,8.825053 l 0.016,120.009558 H 0.23573183 Z"
       id="path1" /><path
       style="display:inline;fill:#ff5555;fill-opacity:1;stroke-width:0.264583"
       d="m 61.390885,30.156826 c 1.085263,-1.085263 8.455999,-7.551616 8.908193,-7.82293 0.452191,-0.271315 5.742844,-2.939251 6.375913,-2.939251 0.633069,0 3.979294,-0.813946 3.979294,-0.813946 l 3.255785,1.401797 23.56926,9.827138 11.25514,3.836982 c 0,0 14.06892,16.371115 8.95295,37.858203 -5.11597,21.487093 -25.57987,41.950991 -25.57987,41.950991 l -9.208743,-6.39497 c 0,0 -20.719693,0 -27.114659,1.53479 -6.394968,1.5348 -9.080854,1.95047 -9.080854,1.95047 0,0 -9.624425,6.10719 -11.063293,6.87459 -1.438867,0.7674 -3.51723,0.57555 -3.51723,0.57555 0,0 -9.626981,-3.68639 -9.084352,-6.03779 0.542631,-2.3514 0.419171,-2.72332 0.419171,-2.72332 0,0 -3.229459,-0.31975 -3.549205,-1.08714 -0.319749,-0.7674 -1.662692,-2.81379 -1.566768,-4.73228 0.09592,-1.91849 0.2558,-1.63072 0.2558,-1.63072 0,0 -2.557988,-4.476478 -2.30219,-5.755468 0.255799,-1.279 1.055169,-4.06081 1.055169,-4.06081 0,0 3.037609,-7.450135 3.741057,-8.920977 0.703445,-1.470843 12.844804,-19.790423 12.844804,-19.790423 L 54.020149,49.736757 c 0,0 -0.271314,-3.255785 0.452192,-4.341045 0.723508,-1.085263 3.346225,-5.426311 3.346225,-5.426311 z"
       id="path4" /><path
       style="display:inline;fill:#6b0000;fill-opacity:1;stroke-width:0.264583"
       d="m 79.795119,29.388097 3.617539,1.989649 1.989646,-1.447017 18.178126,11.304812 c 0,0 5.60719,-8.139464 15.55542,-5.968942 9.94824,2.170526 13.02315,14.470158 13.02315,14.470158 0,0 4.16017,14.289283 -8.50122,22.971376 -12.66139,8.682096 -20.4391,-2.170523 -20.4391,-2.170523 0,0 -0.13566,-4.521925 2.62272,-5.923721 2.75837,-1.401797 8.86297,-4.295828 8.86297,-4.295828 0,0 1.98964,-0.994823 1.85399,-2.713154 -0.13566,-1.718331 -2.44184,-2.39662 -2.44184,-2.39662 0,0 -8.00381,-2.713156 -18.585104,1.401797 -10.581304,4.114951 -9.360384,17.81638 -9.360384,17.81638 0,0 1.944428,12.751828 14.470148,16.052838 12.52573,3.301 13.92753,2.26096 13.92753,2.26096 0,0 23.09486,-0.13205 36.52429,-16.503167 13.42943,-16.371115 9.84825,-31.846935 9.84825,-31.846935 0,0 0.1279,-17.905907 -16.24322,-30.695841 C 128.32692,0.90438462 117.45547,1.5438816 117.45547,1.5438816 c 0,0 -10.48774,0 -24.940362,7.546061 C 78.062485,16.636004 79.213578,25.588956 79.213578,25.588956 Z"
       id="path2" /><path
       style="display:inline;fill:#6b0000;fill-opacity:1;stroke-width:0.264583"
       d="m 61.435571,30.065433 c 0,0 12.470185,-10.487744 17.969856,-11.127242 5.499672,-0.639495 3.758526,-1.261877 3.758526,-1.261877 l -0.271317,-1.22092 c 0,0 0.791337,-0.203486 0.949605,-0.316534 0.158266,-0.113049 2.147914,-2.238354 2.147914,-2.238354 0,0 -4.047122,-6.1272074 -6.895936,-6.5567904 -2.848811,-0.429582 -4.16017,0.587851 -4.16017,0.587851 l -2.826203,2.3061814 c 0,0 -7.868147,3.255786 -9.179507,5.31326 -1.311357,2.057477 -2.351399,6.240256 -2.351399,6.240256 0,0 -0.384363,3.255786 0.04522,3.866246 0.429583,0.610459 0.813412,4.407923 0.813412,4.407923 z"
       id="path3" /><path
       style="fill:#ffffff;fill-opacity:1;stroke-width:0.264583"
       d="m 80.428621,54.334334 c 0,0 -0.479623,2.302187 0.607524,3.101557 1.087143,0.799372 3.773029,2.23824 5.883367,1.662692 2.11034,-0.575546 4.444503,-1.374918 4.732277,-2.430087 0.287774,-1.055169 -0.03198,-1.886516 -0.03198,-1.886516 0,0 -2.557987,-2.206263 -5.052023,-2.398112 -2.494039,-0.191849 -4.540427,0.03198 -4.540427,0.03198 0,0 -0.895295,0.415674 -1.598743,1.918491 z"
       id="path5" /></g></svg>
