<?xml version="1.0" encoding="UTF-8" standalone="no"?>
<!-- Created with Inkscape (http://www.inkscape.org/) -->

<svg
   width="60mm"
   height="60mm"
   viewBox="0 0 60 60"
   version="1.1"
   id="svg1"
   xml:space="preserve"
   inkscape:version="1.3 (0e150ed6c4, 2023-07-21)"
   sodipodi:docname="STOP.svg"
   xmlns:inkscape="http://www.inkscape.org/namespaces/inkscape"
   xmlns:sodipodi="http://sodipodi.sourceforge.net/DTD/sodipodi-0.dtd"
   xmlns="http://www.w3.org/2000/svg"
   xmlns:svg="http://www.w3.org/2000/svg"><sodipodi:namedview
     id="namedview1"
     pagecolor="#ffffff"
     bordercolor="#000000"
     borderopacity="0.25"
     inkscape:showpageshadow="2"
     inkscape:pageopacity="0.0"
     inkscape:pagecheckerboard="0"
     inkscape:deskcolor="#d1d1d1"
     inkscape:document-units="mm"
     inkscape:zoom="2"
     inkscape:cx="113"
     inkscape:cy="91.75"
     inkscape:window-width="1351"
     inkscape:window-height="1017"
     inkscape:window-x="72"
     inkscape:window-y="36"
     inkscape:window-maximized="0"
     inkscape:current-layer="layer1" /><defs
     id="defs1" /><g
     inkscape:label="Warstwa 1"
     inkscape:groupmode="layer"
     id="layer1"><g
       id="g9"
       transform="translate(-62.496072,-62.590089)"><path
         id="path1-6"
         style="fill:#000000;stroke-width:0.264583"
         d="M 88.084019,69.849421 73.930383,84.003234 V 104.1258 l 14.176048,14.1762 v 4.2e-4 h 20.145179 v -4.2e-4 l 14.17605,-14.17578 V 84.003657 L 108.27402,69.849844 c 0,0 -0.1978,0.0012 -0.20297,0.0013 v -0.0017 c -2.17546,0.02072 -4.39102,0.02965 -6.53281,0.03464 -0.81699,0.0023 -1.809988,0.0012 -2.716469,0.0021 -2.581917,4.4e-5 -4.063835,-0.0028 -5.887517,-0.01141 -1.550691,-0.0063 -3.099699,-0.01019 -4.647261,-0.02493 v 8.45e-4 c -0.0052,-4.4e-5 -0.202974,-0.0013 -0.202974,-0.0013 z"
         transform="matrix(1.2220618,0,0,1.2231784,-27.376662,-22.46747)" /><path
         id="path1-6-3"
         style="fill:#f9f9f9;stroke-width:0.264583"
         d="M 88.083886,69.849417 73.93038,84.002906 V 104.1257 l 14.175895,14.17586 v 8.6e-4 h 20.145055 l 4.3e-4,-4.3e-4 14.17589,-14.17586 V 84.003767 l -14.1535,-14.15392 c 0,0 -0.19803,8.16e-4 -0.20322,8.6e-4 v -0.0013 c -2.14246,0.0204 -4.3219,0.02931 -6.43373,0.03441 -0.9391,0.0027 -2.08004,0.0014 -3.136992,0.0022 -1.35902,-3.19e-4 -2.78649,8.93e-4 -3.962361,-0.0026 -0.0071,-1.8e-5 -0.01444,1.9e-5 -0.02153,0 -2.049572,-0.0053 -4.154859,-0.0138 -6.229213,-0.03355 v 4.3e-4 c -0.0052,-4.4e-5 -0.20322,-8.6e-4 -0.20322,-8.6e-4 z"
         transform="matrix(1.2002393,0,0,1.201336,-25.234148,-20.412619)" /><path
         id="path1"
         style="fill:#ff0000;stroke-width:0.264583"
         d="M 88.083991,69.849419 73.930382,84.003175 v 20.122505 l 14.175711,14.17584 v 9e-4 H 108.2515 l 4.5e-4,-4.5e-4 14.17571,-14.17584 V 84.003626 L 108.27405,69.84987 c 0,0 -0.1978,8.57e-4 -0.20297,9.01e-4 v -0.0014 c -2.16074,0.02058 -4.36043,0.02966 -6.48886,0.0347 -0.87633,0.0025 -1.940625,9.76e-4 -2.91967,0.0018 -1.428069,-1.54e-4 -2.916927,9.44e-4 -4.146084,-0.0027 -0.61149,-0.0018 -0.488075,-0.0032 -1.032462,-0.0054 -1.72712,-0.0061 -3.466481,-0.01146 -5.197039,-0.02794 v 4.51e-4 c -0.0052,-4.4e-5 -0.202974,-9.02e-4 -0.202974,-9.02e-4 z m 14.300199,17.0987 c 3.71627,0 4.10143,3.092304 4.10143,3.092304 v 8.542365 c 0,0 -0.73685,2.614172 -4.20201,2.614172 -3.465179,0 -3.883573,-3.228847 -3.883573,-3.228847 l -0.05007,-7.722648 c 0,0 0.317952,-3.297346 4.034223,-3.297346 z m -19.269456,0.09373 c 1.408595,-0.01205 2.663471,0.82152 2.663471,0.82152 0,0 0.880649,0.729438 1.039679,0.955811 0.15903,0.226373 0.143886,0.191973 0.143886,0.191973 l -1.692353,1.219887 c 0,0 -0.580055,-1.304432 -2.237226,-1.280273 -1.657167,0.02418 -2.178137,1.20772 -2.178137,1.20772 0,0 -0.27224,0.700585 0.04736,1.304608 0.319595,0.604023 1.432095,1.184286 1.432095,1.184286 0,0 1.243194,0.253523 2.403213,0.917958 1.160019,0.664424 1.585904,1.401496 1.585904,1.401496 0,0 0.745734,1.050815 0.437973,2.669601 -0.307761,1.618796 -1.124476,2.295569 -1.124476,2.295569 0,0 -0.958925,0.881665 -2.130777,1.099115 -1.171856,0.21745 -2.66302,-0.1451 -2.66302,-0.1451 0,0 -1.290351,-0.39848 -1.692804,-0.978349 C 78.747066,99.327803 78.6051,99.14879 78.6051,99.14879 l 1.621537,-1.065317 c 0,0 0.721966,1.075162 2.154232,1.002678 1.432269,-0.07247 2.012601,-0.930125 2.012601,-0.930125 0,0 0.390475,-0.773334 0.307619,-1.280724 -0.08286,-0.50738 -0.733865,-1.29244 -0.733865,-1.29244 0,0 -0.201502,-0.555768 -2.651743,-1.075231 -2.450244,-0.519466 -2.746014,-3.684447 -2.746014,-3.684447 0,0 -0.01192,-0.93052 0.544421,-1.800314 0.556338,-0.869802 1.704667,-1.498018 1.787526,-1.510101 0.08286,-0.01205 0.804727,-0.458844 2.21332,-0.47092 z m 5.5872,0.02433 7.812248,0.04822 v 2.053574 h -2.86419 V 100.9829 H 91.566575 V 89.198173 h -2.864641 z m 21.303706,0.09644 h 5.25839 c 0,7e-6 2.84073,1.208088 2.84073,4.083265 0,2.875162 -3.01484,3.894446 -3.01484,3.894446 h -3.13076 v 5.87727 h -1.94991 V 87.187404 Z m -7.48343,1.778232 c -1.45636,0 -1.93366,1.098665 -1.93366,1.098665 h -4.5e-4 l -4.5e-4,7.791595 c 0,0 0.44241,1.373557 1.81549,1.373557 1.37308,0 1.9941,-1.035125 1.9941,-1.035125 v -8.025028 c 0,0 -0.41865,-1.203664 -1.87503,-1.203664 z m 9.4392,0.178905 v 0.01217 4.034596 h 2.64002 c 0,0 1.45555,-0.845515 1.45555,-2.053575 0,-1.208052 -1.3491,-1.993188 -1.3491,-1.993188 z"
         transform="matrix(1.1456829,0,0,1.1467298,-19.877858,-15.275494)" /></g></g></svg>
