<?xml version="1.0" encoding="UTF-8" standalone="no"?>
<!-- Created with Inkscape (http://www.inkscape.org/) -->

<svg
   width="210mm"
   height="297mm"
   viewBox="0 0 210 297"
   version="1.1"
   id="svg1"
   inkscape:version="1.3 (0e150ed6c4, 2023-07-21)"
   sodipodi:docname="zbiorka.svg"
   xmlns:inkscape="http://www.inkscape.org/namespaces/inkscape"
   xmlns:sodipodi="http://sodipodi.sourceforge.net/DTD/sodipodi-0.dtd"
   xmlns="http://www.w3.org/2000/svg"
   xmlns:svg="http://www.w3.org/2000/svg">
  <sodipodi:namedview
     id="namedview1"
     pagecolor="#ffffff"
     bordercolor="#000000"
     borderopacity="0.25"
     inkscape:showpageshadow="2"
     inkscape:pageopacity="0.0"
     inkscape:pagecheckerboard="0"
     inkscape:deskcolor="#d1d1d1"
     inkscape:document-units="mm"
     inkscape:zoom="0.75187991"
     inkscape:cx="438.89988"
     inkscape:cy="557.26984"
     inkscape:window-width="1435"
     inkscape:window-height="1040"
     inkscape:window-x="91"
     inkscape:window-y="56"
     inkscape:window-maximized="0"
     inkscape:current-layer="layer1" />
  <defs
     id="defs1" />
  <g
     inkscape:label="Warstwa 1"
     inkscape:groupmode="layer"
     id="layer1">
    <g
       id="g8">
      <rect
         style="fill:#3a3fe0;fill-opacity:1;stroke:#000000;stroke-width:0.0989999;stroke-linecap:square;stroke-linejoin:bevel;stroke-dasharray:none;paint-order:fill markers stroke"
         id="rect7"
         width="209.8123"
         height="296.85376"
         x="0.1099674"
         y="0.087973922"
         ry="19.896467" />
      <g
         id="g7"
         transform="translate(13.020142)">
        <path
           style="fill:#820000;fill-opacity:1;stroke:#000000;stroke-width:0.2;stroke-linecap:square;stroke-linejoin:bevel;paint-order:fill markers stroke"
           d="m 69.675356,111.19905 c -28.503555,30.61493 -36.245263,61.93365 -33.0782,73.8981 3.167062,11.96446 5.982226,33.78199 21.817536,41.5237 15.835307,7.74171 42.579378,10.20498 51.024878,8.0936 8.4455,-2.11137 23.92891,-7.7417 27.44787,-21.81753 3.51896,-14.07583 22.87322,-51.37678 14.07583,-57.35901 -8.79739,-5.98223 -24.28081,-48.9135 -34.48578,-48.56161 -10.20498,0.3519 -46.802134,4.22275 -46.802134,4.22275 z"
           id="path4" />
        <path
           style="fill:#6b0000;fill-opacity:1;stroke:#000000;stroke-width:0.2;stroke-linecap:square;stroke-linejoin:bevel;paint-order:fill markers stroke"
           d="m 51.376778,215.00829 c -10.204977,16.1872 -18.298581,42.22749 -9.149289,40.81991 9.149289,-1.40759 27.799762,-11.26067 27.447867,-21.46564 -0.351896,-10.20498 -1.407584,-28.50356 -9.149289,-26.74408 -7.741709,1.75948 -9.149289,7.38981 -9.149289,7.38981 z"
           id="path5" />
        <path
           style="fill:#6b0000;fill-opacity:1;stroke:#000000;stroke-width:0.2;stroke-linecap:square;stroke-linejoin:bevel;paint-order:fill markers stroke"
           d="m 130.60801,218.08295 c 10.20498,16.1872 18.29858,42.22749 9.14929,40.81991 -9.14929,-1.40759 -27.79977,-11.26067 -27.44787,-21.46564 0.3519,-10.20498 1.40758,-28.50356 9.14929,-26.74408 7.74171,1.75948 9.14929,7.38981 9.14929,7.38981 z"
           id="path5-3" />
        <path
           style="fill:#6b0000;fill-opacity:1;stroke:#000000;stroke-width:0.266321;stroke-linecap:square;stroke-linejoin:bevel;paint-order:fill markers stroke"
           d="m 144.46169,129.20489 c 14.52351,20.16806 26.04214,52.61235 13.02107,50.85861 -13.02107,-1.75375 -39.56404,-14.02997 -39.06322,-26.74461 0.50081,-12.71466 2.00324,-35.51335 13.02107,-33.32116 11.01784,2.19218 13.02108,9.20716 13.02108,9.20716 z"
           id="path5-3-6" />
        <path
           style="fill:#6b0000;fill-opacity:1;stroke:#000000;stroke-width:0.251629;stroke-linecap:square;stroke-linejoin:bevel;paint-order:fill markers stroke"
           d="M 45.282884,127.17981 C 32.010933,146.88184 21.484919,178.57643 33.3839,176.86322 45.282884,175.14999 69.538517,163.15744 69.080855,150.7366 68.623202,138.31575 67.250244,116.04388 57.181874,118.18541 c -10.068379,2.14152 -11.89899,8.9944 -11.89899,8.9944 z"
           id="path5-3-6-2" />
        <path
           style="fill:#6f0000;fill-opacity:1;stroke:#000000;stroke-width:0.2;stroke-linecap:square;stroke-linejoin:bevel;paint-order:fill markers stroke"
           d="m 57.7109,46.09834 c 1.759479,0 30.263033,-46.80213147 71.43483,-1.759479 41.1718,45.042656 -8.79739,72.490519 -36.597153,72.842419 C 64.748814,117.53318 38.356635,101.69787 41.171801,88.325829 43.986965,74.95379 57.7109,46.09834 57.7109,46.09834 Z"
           id="path1" />
        <path
           style="fill:#6b0000;fill-opacity:1;stroke:#000000;stroke-width:0.2;stroke-linecap:square;stroke-linejoin:bevel;paint-order:fill markers stroke"
           d="M 49.617299,16.890995 C 38.004739,25.688388 30.263033,34.485781 35.189572,43.986965 40.116114,53.48815 54.191942,66.508293 60.526067,60.526067 66.860189,54.543838 76.71327,54.895733 73.898103,44.338861 71.082936,33.781989 72.49052,23.225118 65.452606,21.817535 58.414692,20.409952 56.303317,14.779621 49.617299,16.890995 Z"
           id="path2" />
        <path
           style="fill:#6b0000;fill-opacity:1;stroke:#000000;stroke-width:0.2;stroke-linecap:square;stroke-linejoin:bevel;paint-order:fill markers stroke"
           d="m 105.92062,36.597156 c 9.50118,-19.354265 15.8353,-24.632701 24.2808,-21.113744 8.4455,3.518957 19.35426,15.483413 13.02014,20.761848 -6.33412,5.278437 -14.77962,14.07583 -23.22512,14.07583 -8.44549,0 -15.48341,-9.501184 -14.07582,-13.723934 z"
           id="path3" />
        <path
           style="fill:#000000;fill-opacity:1;stroke:#000000;stroke-width:0.2;stroke-linecap:square;stroke-linejoin:bevel;paint-order:fill markers stroke"
           d="M 74.953789,61.93365 C 60.174169,69.323459 65.8045,80.232227 71.082937,78.120852 76.361372,76.009477 86.214453,71.082939 83.751182,65.804501 81.287914,60.526066 78.472747,61.229858 74.953789,61.93365 Z"
           id="path6" />
        <path
           style="fill:#000000;fill-opacity:1;stroke:#000000;stroke-width:0.2;stroke-linecap:square;stroke-linejoin:bevel;paint-order:fill markers stroke"
           d="m 107.06384,59.606753 c 14.77962,7.389809 9.14929,18.298577 3.87085,16.187202 -5.27843,-2.111375 -15.131525,-7.037913 -12.668255,-12.316351 2.463265,-5.278435 5.278445,-4.574643 8.797405,-3.870851 z"
           id="path6-3" />
        <path
           style="fill:#c02b1d;fill-opacity:1;stroke:#000000;stroke-width:0.2;stroke-linecap:square;stroke-linejoin:bevel;paint-order:fill markers stroke"
           d="m 89.733412,76.713269 c -11.260664,2.815167 -6.686021,9.853081 -3.870854,9.501185 2.815166,-0.351896 12.316351,2.111375 11.964455,-1.055688 -0.351896,-3.167062 -4.574646,-8.445497 -8.093601,-8.445497 z"
           id="path7" />
      </g>
      <text
         xml:space="preserve"
         style="font-size:11.6063px;fill:#c0b01d;fill-opacity:1;stroke:#000000;stroke-width:0.099;stroke-linecap:square;stroke-linejoin:bevel;stroke-dasharray:none;paint-order:fill markers stroke"
         x="5.865973"
         y="186.85066"
         id="text7"
         transform="scale(0.66836891,1.4961797)"><tspan
           sodipodi:role="line"
           id="tspan7"
           style="font-size:11.6063px;fill:#c0b01d;fill-opacity:1;stroke-width:0.099;stroke-dasharray:none"
           x="5.865973"
           y="186.85066">ZBIÓRKA ZABAWEK DLA DZIECI Z DOMU DZIECKA</tspan></text>
    </g>
  </g>
</svg>
